<svg id="Layer_1" data-name="Layer 1" xmlns="http://www.w3.org/2000/svg" viewBox="0 0 254.486 98.496"><defs><style>.cls-1{fill:#0065a4}</style></defs><g id="BC_CDC_logo" data-name="BC CDC logo"><path class="cls-1" d="M122.959 100.634a2.557 2.557 0 0 1-1.786.521 5.017 5.017 0 0 1-.56-.027v2.072h-1.154v-6.049h2.071a2.081 2.081 0 0 1 1.6.5 1.843 1.843 0 0 1 .516 1.349 2.091 2.091 0 0 1-.687 1.634zm-1.539-2.5h-.807v2.015l.147.009h.145c.13.011.212.011.259.011.9 0 1.29-.332 1.29-1.072a.867.867 0 0 0-1.034-.964zM126.743 100.24a.5.5 0 0 0-.33-.129.745.745 0 0 0-.531.32 1.2 1.2 0 0 0-.293.815v1.954H124.5v-4.262h.943l.047.936c.411-.726.678-1 1.007-1a.761.761 0 0 1 .6.3zM129.6 103.317a2.253 2.253 0 1 1 2.144-2.253 2.155 2.155 0 0 1-2.144 2.253zm0-3.628a1.447 1.447 0 1 0 1.009 1.375 1.244 1.244 0 0 0-1.009-1.374zM134.751 103.2h-1.09l-1.431-4.262h1.146l.861 2.822.027.183.026-.183.953-2.822h1.148zM137.773 98.15a.756.756 0 1 1 .615-.743.692.692 0 0 1-.615.743zm-.549 5.049v-4.261h1.091v4.262h-1.091zM142.392 103.2v-2.74c0-.532-.09-.726-.357-.726a1.868 1.868 0 0 0-1.026.742l-.147.157v2.567h-1.1v-4.262h1.1v.706a1.919 1.919 0 0 1 1.477-.79 1.047 1.047 0 0 1 1.153 1.212v3.134h-1.1zM147.953 103.07a3.226 3.226 0 0 1-1.246.247 2.054 2.054 0 0 1-2.172-2.208 2.16 2.16 0 0 1 2.263-2.3 3.579 3.579 0 0 1 .7.073 2.428 2.428 0 0 1 .815.351l-.52.833a1.256 1.256 0 0 0-2.1 1.033 1.155 1.155 0 0 0 1.119 1.285 1.961 1.961 0 0 0 1.1-.366l.4.887c-.159.074-.277.129-.359.165zM149.728 98.15a.756.756 0 1 1 .616-.743.685.685 0 0 1-.616.743zm-.546 5.049v-4.261h1.089v4.262h-1.089zM154.961 103.253h-.228a.793.793 0 0 1-.915-.467 1.682 1.682 0 0 1-1.192.523 1.149 1.149 0 0 1-1.235-1.154 1.371 1.371 0 0 1 .071-.433 1.28 1.28 0 0 1 1.026-.778l1.209-.347v-.357c0-.459-.165-.672-.52-.672a.528.528 0 0 0-.6.388.317.317 0 0 0 .025.109l-1.044.229a.733.733 0 0 1-.054-.293c0-.751.658-1.184 1.814-1.184a1.231 1.231 0 0 1 1.475 1.358v1.775c0 .388.045.45.34.478zM153.7 101.3l-1.091.357a.888.888 0 0 0-.082.359.405.405 0 0 0 .441.439.957.957 0 0 0 .447-.127 1.832 1.832 0 0 0 .284-.194v-.834zM156.192 103.2v-6.681h1.087v6.681h-1.087zM165.628 103.2v-2.594h-3.105v2.594h-1.156v-6.049h1.156v2.417h3.105v-2.417h1.153v6.049h-1.153zM171.49 103.017a3.366 3.366 0 0 1-1.4.3 1.958 1.958 0 0 1-2.062-2.135 2.209 2.209 0 0 1 2.135-2.365 1.792 1.792 0 0 1 1.789 1.954v.467h-2.824a1.347 1.347 0 0 0 .146.676 1.1 1.1 0 0 0 .954.515 1.609 1.609 0 0 0 .5-.073 2.8 2.8 0 0 0 .814-.4l.4.835a5.01 5.01 0 0 1-.452.226zm-1.4-3.373a.922.922 0 0 0-.905.906h1.668c-.03-.65-.253-.906-.764-.906zM176.21 103.253h-.23a.793.793 0 0 1-.915-.467 1.683 1.683 0 0 1-1.192.523 1.151 1.151 0 0 1-1.237-1.154 1.373 1.373 0 0 1 .073-.433 1.281 1.281 0 0 1 1.028-.778l1.208-.347v-.357c0-.459-.166-.672-.523-.672a.527.527 0 0 0-.594.388.3.3 0 0 0 .027.109l-1.046.229a.7.7 0 0 1-.054-.293c0-.751.659-1.184 1.814-1.184a1.232 1.232 0 0 1 1.477 1.358v1.775c0 .388.045.45.338.478zm-1.265-1.952l-1.09.357a.882.882 0 0 0-.081.359.4.4 0 0 0 .436.439.958.958 0 0 0 .45-.127 1.735 1.735 0 0 0 .284-.194v-.835zM177.437 103.2v-6.681h1.091v6.681h-1.091zM181.735 103.034a1.971 1.971 0 0 1-.953.283.768.768 0 0 1-.833-.925v-2.647h-.633v-.7l.633-.11v-1.269h1.035v1.272h.923v.808h-.923v1.9c0 .476.043.613.22.613a1.152 1.152 0 0 0 .585-.265l.35.8c-.148.085-.286.169-.404.24zM185.609 103.2v-2.74c0-.532-.091-.726-.355-.726a1.873 1.873 0 0 0-1.028.742l-.147.157v2.567h-1.1v-6.681h1.1v3.125a1.925 1.925 0 0 1 1.477-.79 1.048 1.048 0 0 1 1.153 1.212v3.134h-1.1zM194.205 98.589a4.138 4.138 0 0 0-1.568-.43.732.732 0 0 0-.889.559.765.765 0 0 0 .578.641 8.637 8.637 0 0 1 1.813 1.165 1.535 1.535 0 0 1 .413 1.08c0 1.08-.787 1.713-2.124 1.713a5.351 5.351 0 0 1-.54-.036 3.758 3.758 0 0 1-1.264-.422c-.086-.036-.222-.1-.4-.183l.486-1.063a6.943 6.943 0 0 0 .86.422 2.777 2.777 0 0 0 .87.174.731.731 0 0 0 .88-.6.751.751 0 0 0-.531-.649l-.936-.532c-1.069-.613-1.4-1.018-1.4-1.677a1.612 1.612 0 0 1 .247-.851 1.692 1.692 0 0 1 .448-.447 2.333 2.333 0 0 1 1.522-.4 3.979 3.979 0 0 1 1.134.154 5.743 5.743 0 0 1 .863.349zM198.813 103.017a3.385 3.385 0 0 1-1.4.3 1.957 1.957 0 0 1-2.06-2.135 2.208 2.208 0 0 1 2.135-2.365 1.792 1.792 0 0 1 1.787 1.954v.467h-2.824a1.313 1.313 0 0 0 .149.676 1.094 1.094 0 0 0 .953.515 1.6 1.6 0 0 0 .5-.073 2.776 2.776 0 0 0 .814-.4l.405.835a6.61 6.61 0 0 1-.459.226zm-1.4-3.373a.926.926 0 0 0-.906.906h1.668c-.031-.65-.25-.906-.765-.906zM202.44 100.24a.493.493 0 0 0-.327-.129.744.744 0 0 0-.532.32 1.206 1.206 0 0 0-.3.815v1.954H200.2v-4.262h.942l.048.936c.411-.726.678-1 1.007-1a.764.764 0 0 1 .595.3zM205.512 103.2h-1.092l-1.429-4.262h1.144l.865 2.822.026.183.027-.183.954-2.822h1.143zM208.533 98.15a.756.756 0 1 1 .615-.743.692.692 0 0 1-.615.743zm-.549 5.049v-4.261h1.091v4.262h-1.091zM213.509 103.07a3.227 3.227 0 0 1-1.246.247 2.053 2.053 0 0 1-2.171-2.208 2.159 2.159 0 0 1 2.264-2.3 3.584 3.584 0 0 1 .7.073 2.444 2.444 0 0 1 .815.351l-.522.833a1.253 1.253 0 0 0-2.1 1.033 1.153 1.153 0 0 0 1.117 1.285 1.968 1.968 0 0 0 1.1-.366l.4.887c-.154.074-.275.129-.357.165zM217.824 103.017a3.372 3.372 0 0 1-1.4.3 1.958 1.958 0 0 1-2.06-2.135 2.209 2.209 0 0 1 2.136-2.365 1.792 1.792 0 0 1 1.788 1.954v.467h-2.824a1.306 1.306 0 0 0 .147.676 1.1 1.1 0 0 0 .954.515 1.581 1.581 0 0 0 .5-.073 2.742 2.742 0 0 0 .813-.4l.407.835a6.78 6.78 0 0 1-.461.226zm-1.4-3.373a.928.928 0 0 0-.906.906h1.669c-.032-.65-.252-.906-.766-.906zM222.069 100.119c-.112-.07-.214-.135-.295-.181a1.981 1.981 0 0 0-.981-.295.576.576 0 0 0-.7.405c0 .191.146.31.531.447a6.583 6.583 0 0 1 1.283.586 1.181 1.181 0 0 1 .439.944 1.447 1.447 0 0 1-1.7 1.291 3.393 3.393 0 0 1-.7-.081 3.448 3.448 0 0 1-1.055-.395l.349-.891a3.452 3.452 0 0 0 .917.45 1.463 1.463 0 0 0 .476.084c.42 0 .669-.139.669-.368a.517.517 0 0 0-.431-.448l-.733-.284a1.359 1.359 0 0 1-1.1-1.255 1.487 1.487 0 0 1 1.73-1.338 3.527 3.527 0 0 1 .706.081 2.5 2.5 0 0 1 .934.359zM229.682 103.2l-.476-1.493h-2.027l-.491 1.493h-1.212l2.191-6.048h1.033l2.189 6.048h-1.207zm-1.494-4.664l-.7 2.191h1.4zM234.364 103.2v-.714a1.894 1.894 0 0 1-1.476.787 1.04 1.04 0 0 1-1.156-1.2v-3.135h1.1v2.74c0 .523.09.724.346.724a1.879 1.879 0 0 0 1.035-.743l.148-.154v-2.567h1.1v4.262h-1.1zM238.77 103.034a1.965 1.965 0 0 1-.953.283.77.77 0 0 1-.836-.925v-2.647h-.633v-.7l.633-.11v-1.269h1.038v1.272h.925v.808h-.925v1.9c0 .476.045.613.22.613a1.152 1.152 0 0 0 .585-.265l.349.8c-.147.085-.284.169-.403.24zM242.646 103.2v-2.74c0-.532-.093-.726-.357-.726a1.873 1.873 0 0 0-1.028.742l-.144.157v2.567h-1.1v-6.681h1.1v3.125a1.919 1.919 0 0 1 1.475-.79 1.049 1.049 0 0 1 1.155 1.212v3.134h-1.1zM246.934 103.317a2.253 2.253 0 1 1 2.143-2.253 2.157 2.157 0 0 1-2.143 2.253zm0-3.628a1.448 1.448 0 1 0 1.008 1.375 1.243 1.243 0 0 0-1.008-1.374zM252.31 100.24a.489.489 0 0 0-.329-.129.752.752 0 0 0-.532.32 1.223 1.223 0 0 0-.292.815v1.954h-1.092v-4.262h.945l.045.936c.413-.726.678-1 1.01-1a.77.77 0 0 1 .6.3zM253.941 98.15a.756.756 0 1 1 .616-.743.692.692 0 0 1-.616.743zm-.549 5.049v-4.261h1.092v4.262h-1.092zM257.727 103.034a1.971 1.971 0 0 1-.953.283.768.768 0 0 1-.833-.925v-2.647h-.633v-.7l.633-.11v-1.269h1.033v1.272h.926v.808h-.925v1.9c0 .476.047.613.222.613a1.149 1.149 0 0 0 .585-.265l.349.8c-.148.085-.285.169-.404.24zM260.814 102.972a6.463 6.463 0 0 1-.687 1.454 7.022 7.022 0 0 1-.754 1.072l-.9-.585a5.479 5.479 0 0 0 .788-.981 5.121 5.121 0 0 0 .65-1.385l-1.567-3.609h1.19l.753 1.9.107.513.123-.513.64-1.9h1.08zM51.73 76.716h.822c1.3 0 2.191.228 2.191 1.733 0 1.558-.946 1.766-2.191 1.766h-.822v-3.5zm-2.041 10.615h3.7c1.746 0 4.023-.37 4.023-3.341a2.827 2.827 0 0 0-2.612-3.072v-.037a2.734 2.734 0 0 0 2.028-2.781c0-2.451-2.12-2.836-3.434-2.836h-3.705v12.07zm2.041-5.661h.822c1.691 0 2.774.559 2.774 2.148 0 1.8-1.449 2.058-2.776 2.058h-.82V81.67zM67.288 86.83a8.82 8.82 0 0 1-3.291.7c-3.512 0-5.068-2.514-5.068-6.277 0-3.556 1.312-6.184 4.754-6.184 2.8 0 4.061 1.629 4.061 3.5h-2.28c0-.947-.21-2.05-1.781-2.05-2.113 0-2.5 2.521-2.5 4.413 0 2.89.822 4.991 3.283 4.991a5.736 5.736 0 0 0 2.82-.894v1.8zM82.189 86.83a8.8 8.8 0 0 1-3.289.7c-3.512 0-5.069-2.514-5.069-6.277 0-3.556 1.311-6.184 4.754-6.184 2.8 0 4.061 1.629 4.061 3.5h-2.28c0-.947-.21-2.05-1.782-2.05-2.112 0-2.5 2.521-2.5 4.413 0 2.89.821 4.991 3.283 4.991a5.727 5.727 0 0 0 2.818-.894v1.8zM85.331 81.5a1.569 1.569 0 0 1 1.57-1.456 1.366 1.366 0 0 1 1.464 1.456h-3.034zM90 85.853a5.2 5.2 0 0 1-1.6.313c-2.338 0-3.123-2.344-3.123-3.5h4.93V82.2c0-2.048-1.053-3.392-3.168-3.392-2.512 0-3.559 1.595-3.559 3.932 0 3.061 1.5 4.789 4.186 4.789A7.349 7.349 0 0 0 90 87.193v-1.34zM92.09 79h1.942v1.558h.034a2.6 2.6 0 0 1 2.448-1.751c1.223 0 2.254.84 2.254 2.748v5.779h-1.941V82.57c0-1.7-.174-1.944-.852-1.944-1.3 0-1.943 1.785-1.943 3.1v3.609H92.09V79zM106.066 87.387a9.953 9.953 0 0 1-1.593.14c-2.2 0-2.553-1.046-2.553-2.29v-4.9h-1.627V79h1.627v-1.977l1.941-1.171V79h2.467v1.337h-2.467v3.95c0 1 .123 1.88 1.312 1.88a3.6 3.6 0 0 0 .892-.142v1.362zM107.591 79h1.941v1.545h.035a2.765 2.765 0 0 1 2.693-1.74v2.039c-1.959 0-2.728.82-2.728 2.834v3.654h-1.941V79zM115.135 81.5a1.569 1.569 0 0 1 1.569-1.456 1.369 1.369 0 0 1 1.467 1.456h-3.036zm4.667 4.351a5.2 5.2 0 0 1-1.6.313c-2.336 0-3.122-2.344-3.122-3.5h4.93V82.2c0-2.048-1.053-3.392-3.168-3.392-2.511 0-3.56 1.595-3.56 3.932 0 3.061 1.5 4.789 4.187 4.789a7.362 7.362 0 0 0 2.33-.333v-1.343zM127.753 80.336h-1.523V79h1.523v-1.14c0-1.768 1.135-2.8 3.41-2.8a8.707 8.707 0 0 1 1.94.193v1.463a4.567 4.567 0 0 0-1.521-.3 1.709 1.709 0 0 0-1.89 2V79h2.449v1.337h-2.449v7h-1.939v-7zM135.095 83.165c0-1.562.211-3 1.6-3s1.6 1.438 1.6 3-.21 3-1.6 3-1.6-1.435-1.6-3zm1.6 4.361c2.392 0 3.667-1.622 3.667-4.361s-1.275-4.359-3.667-4.359-3.667 1.622-3.667 4.359 1.28 4.361 3.672 4.361zM142.24 79h1.94v1.545h.036a2.764 2.764 0 0 1 2.694-1.74v2.039c-1.962 0-2.73.82-2.73 2.834v3.654h-1.94V79zM155.759 76.716h.941c2.532 0 3.039 1.606 3.039 4.546 0 3.706-.977 4.614-3.039 4.614h-.945v-9.16zm-2.039 10.615h2.98c2.5 0 5.295-.492 5.295-6.069 0-4.32-1.433-6-5.295-6h-2.98v12.07zM164.065 79h1.941v8.334h-1.941V79zm0-3.74h1.941v1.919h-1.941v-1.92zM172.825 80.772a4.152 4.152 0 0 0-1.855-.559 1.178 1.178 0 0 0-1.307.768c0 1.1 3.67 1.665 3.67 4.043 0 1.715-1.309 2.5-3.156 2.5a6.734 6.734 0 0 1-2.2-.331v-1.677a5.48 5.48 0 0 0 2.115.507c.477 0 1.445-.088 1.445-.754 0-.98-3.594-1.8-3.594-4.007 0-1.558 1.184-2.456 2.994-2.456a6.971 6.971 0 0 1 1.891.316v1.649zM176.333 81.5a1.572 1.572 0 0 1 1.571-1.456 1.365 1.365 0 0 1 1.463 1.456h-3.034zM181 85.853a5.194 5.194 0 0 1-1.6.313c-2.337 0-3.121-2.344-3.121-3.5h4.926V82.2c0-2.048-1.051-3.392-3.164-3.392-2.514 0-3.56 1.595-3.56 3.932 0 3.061 1.5 4.789 4.187 4.789a7.347 7.347 0 0 0 2.332-.336v-1.34zM184.548 85.17c0-1.124 1.506-1.509 2.771-1.509 0 1.139-.475 2.5-1.738 2.5a.915.915 0 0 1-1.033-.991zm2.771 2.163h1.845V81.4c0-1.7-.956-2.591-3.022-2.591-2.119 0-3.17 1.047-3.17 2.644h1.891a1.153 1.153 0 0 1 1.279-1.284c.967 0 1.178.7 1.178 1.531v.827c-1.158.037-4.662.052-4.662 2.819a2.215 2.215 0 0 0 2.451 2.183 2.171 2.171 0 0 0 2.176-1.151h.035v.958zM195.81 80.772a4.185 4.185 0 0 0-1.856-.559 1.175 1.175 0 0 0-1.306.768c0 1.1 3.669 1.665 3.669 4.043 0 1.715-1.309 2.5-3.158 2.5a6.725 6.725 0 0 1-2.2-.331v-1.677a5.474 5.474 0 0 0 2.113.507c.476 0 1.449-.088 1.449-.754 0-.98-3.595-1.8-3.595-4.007 0-1.558 1.184-2.456 2.993-2.456a7 7 0 0 1 1.893.316v1.649zM199.315 81.5a1.572 1.572 0 0 1 1.57-1.456 1.367 1.367 0 0 1 1.465 1.456h-3.035zm4.668 4.351a5.226 5.226 0 0 1-1.6.313c-2.338 0-3.121-2.344-3.121-3.5h4.928V82.2c0-2.048-1.053-3.392-3.166-3.392-2.512 0-3.561 1.595-3.561 3.932 0 3.061 1.5 4.789 4.187 4.789a7.366 7.366 0 0 0 2.33-.333v-1.343zM219.176 86.83a8.839 8.839 0 0 1-3.294.7c-3.508 0-5.066-2.514-5.066-6.277 0-3.556 1.311-6.184 4.756-6.184 2.795 0 4.06 1.629 4.06 3.5h-2.28c0-.947-.21-2.05-1.78-2.05-2.115 0-2.5 2.521-2.5 4.413 0 2.89.821 4.991 3.283 4.991a5.745 5.745 0 0 0 2.821-.894v1.8zM222.529 83.165c0-1.562.21-3 1.6-3s1.606 1.438 1.606 3-.211 3-1.606 3-1.6-1.435-1.6-3zm1.6 4.361c2.392 0 3.668-1.622 3.668-4.361s-1.276-4.359-3.668-4.359-3.667 1.622-3.667 4.359 1.281 4.361 3.672 4.361zM229.722 79h1.943v1.558h.035a2.6 2.6 0 0 1 2.451-1.751c1.221 0 2.254.84 2.254 2.748v5.779h-1.945V82.57c0-1.7-.174-1.944-.852-1.944-1.3 0-1.943 1.785-1.943 3.1v3.609h-1.943V79zM243.7 87.387a9.941 9.941 0 0 1-1.592.14c-2.205 0-2.553-1.046-2.553-2.29v-4.9h-1.629V79h1.629v-1.977l1.941-1.171V79h2.465v1.337H241.5v3.95c0 1 .123 1.88 1.311 1.88a3.583 3.583 0 0 0 .892-.142v1.362zM245.224 79h1.941v1.545h.035a2.763 2.763 0 0 1 2.691-1.74v2.039c-1.957 0-2.727.82-2.727 2.834v3.654h-1.941V79zM252.981 83.165c0-1.562.209-3 1.6-3s1.6 1.438 1.6 3-.21 3-1.6 3-1.6-1.435-1.6-3zm1.6 4.361c2.393 0 3.669-1.622 3.669-4.361s-1.275-4.359-3.669-4.359-3.667 1.622-3.667 4.359 1.28 4.361 3.67 4.361zM260.247 75.259h1.94v12.074h-1.94V75.259zM32.524 51.606c-12.176 0-20.862-8.5-20.862-20.559 0-11.855 8.755-20.7 20.384-20.7a32.9 32.9 0 0 1 13.966 3.218v-3.78A38.048 38.048 0 0 0 32.251 7C19.46 7 7.757 16.725 7.757 31.047c0 13.705 10.608 23.908 24.836 23.908a34.552 34.552 0 0 0 13.419-2.881v-3.72a31.405 31.405 0 0 1-13.488 3.252zM85.369 30.918a21.9 21.9 0 0 1-21.9 21.9c-1.646 0-13.807-.035-13.807-.035V9.058s12.16-.04 13.807-.04a21.9 21.9 0 0 1 21.9 21.9zm3.687 20.688c-12.177 0-20.863-8.5-20.863-20.559 0-11.855 8.755-20.7 20.385-20.7a32.9 32.9 0 0 1 13.965 3.218v-3.78A38.057 38.057 0 0 0 88.78 7c-12.791 0-24.494 9.725-24.494 24.047 0 13.705 10.609 23.908 24.838 23.908a34.548 34.548 0 0 0 13.418-2.881v-3.72a31.408 31.408 0 0 1-13.486 3.252z" transform="translate(-7.757 -7.002)"/></g></svg>